<svg xmlns="http://www.w3.org/2000/svg" xmlns:xlink="http://www.w3.org/1999/xlink" width="87" height="87" viewBox="0 0 87 87"><defs><style>.a{fill:url(#a);}.b{fill:#fff;}</style><linearGradient id="a" x1="0.5" x2="0.5" y2="1" gradientUnits="objectBoundingBox"><stop offset="0" stop-color="#e26aff"/><stop offset="1" stop-color="#982cc2"/></linearGradient></defs><g transform="translate(-764 -2074)"><circle class="a" cx="43.5" cy="43.5" r="43.5" transform="translate(764 2074)"/><g transform="translate(783.292 2096.953)"><g transform="translate(7.585 5.333)"><path class="b" d="M75.879,68.006h0l-4.673-4.673a5.7,5.7,0,0,0-8.061,0h0L46.283,80.2a3.129,3.129,0,0,0,0,4.426l8.307,8.307a3.132,3.132,0,0,0,4.426,0L75.879,76.067A5.7,5.7,0,0,0,75.879,68.006Zm-5.651-3.7.138.138a2.737,2.737,0,0,1-1.808.672,2.77,2.77,0,0,1-2.624-1.893A4.323,4.323,0,0,1,70.228,64.311ZM47.333,83.721l-.075-.075a1.752,1.752,0,0,1,0-2.473l.074-.074A2.04,2.04,0,0,1,47.333,83.721Zm10.706,8.233a1.752,1.752,0,0,1-2.473,0l-.074-.074a2.04,2.04,0,0,1,2.622,0ZM74.9,75.089l-15.8,15.8a3.454,3.454,0,0,0-4.594,0l-6.184-6.184a3.454,3.454,0,0,0,0-4.594l15.8-15.8a4.4,4.4,0,0,1,.573-.477A4.149,4.149,0,0,0,68.559,66.5a4.105,4.105,0,0,0,2.783-1.079l2.445,2.444a4.108,4.108,0,0,0-1.079,2.784,4.149,4.149,0,0,0,2.671,3.863A4.3,4.3,0,0,1,74.9,75.089Zm-.81-4.436a2.731,2.731,0,0,1,.676-1.8l.138.138a4.33,4.33,0,0,1,1.079,4.294A2.773,2.773,0,0,1,74.091,70.653Z" transform="translate(-45.366 -61.664)"/></g><g transform="translate(12.101 12.931)"><path class="b" d="M117.581,157.532a21.15,21.15,0,0,0-7.864-7.867.65.65,0,0,0-.83.116l-.008-.008L97.814,160.838l0,0a.665.665,0,0,0-.138.182.692.692,0,0,0,.021.647,21.151,21.151,0,0,0,7.867,7.867.676.676,0,0,0,.83-.114l11.065-11.065v0A.65.65,0,0,0,117.581,157.532Zm-9.486-5.013-.73,2.923-2.144,2.144-1.1-1.1Zm-4.948,4.948,1.1,1.1-1.423,1.422-2.559.366Zm2.23,10.336a19.771,19.771,0,0,1-5.936-5.936l3.462-.494,2.969,2.969Zm-1.252-7.164,3.863-3.863,2.48,2.48-3.863,3.863Zm2.767,6.342.363-2.559L108.679,163l1.1,1.1Zm3.862-3.862-1.1-1.1,2.144-2.144,2.924-.731Zm.9-4.628-2.9-2.9,1.062-4.245a19.777,19.777,0,0,1,6.087,6.088Z" transform="translate(-97.609 -149.565)"/></g><g transform="translate(9.543 32.506)"><g transform="translate(0 0)"><rect class="b" width="1.383" height="2.934" transform="translate(0 0.978) rotate(-45)"/></g></g><g transform="translate(6.776 33.888)"><g transform="translate(0 0)"><rect class="b" width="1.383" height="4.889" transform="translate(0 0.978) rotate(-45)"/></g></g><g transform="translate(4.01 35.268)"><g transform="translate(0 0)"><rect class="b" width="1.383" height="6.846" transform="translate(0 0.978) rotate(-45)"/></g></g><g transform="translate(35.821 5.538)"><g transform="translate(0 0)"><rect class="b" width="1.383" height="2.934" transform="translate(0 0.978) rotate(-45)"/></g></g><g transform="translate(37.204 2.769)"><g transform="translate(0 0)"><rect class="b" width="1.383" height="4.889" transform="translate(0 0.978) rotate(-45)"/></g></g><g transform="translate(38.587 0.003)"><g transform="translate(0 0)"><rect class="b" width="1.383" height="6.846" transform="translate(0 0.978) rotate(-45)"/></g></g><g transform="translate(28.905 30.43)"><g transform="translate(0 0)"><rect class="b" width="1.956" height="1.383" transform="translate(0 1.383) rotate(-45)"/></g></g><g transform="translate(30.285 31.814)"><g transform="translate(0 0)"><rect class="b" width="3.912" height="1.383" transform="translate(0 2.766) rotate(-45)"/></g></g><g transform="translate(31.671 33.197)"><g transform="translate(0 0)"><rect class="b" width="5.868" height="1.383" transform="translate(0 4.149) rotate(-45)"/></g></g><g transform="translate(33.053 34.581)"><g transform="translate(0 0)"><rect class="b" width="7.824" height="1.383" transform="translate(0 5.532) rotate(-45)"/></g></g><g transform="translate(13.001 13.834)"><g transform="translate(0 0)"><rect class="b" width="1.956" height="1.383" transform="translate(0 1.383) rotate(-45)"/></g></g><g transform="translate(10.234 11.067)"><g transform="translate(0 0)"><rect class="b" width="3.912" height="1.383" transform="translate(0 2.766) rotate(-45)"/></g></g><g transform="translate(7.468 8.301)"><g transform="translate(0 0)"><rect class="b" width="5.868" height="1.383" transform="translate(0 4.149) rotate(-45)"/></g></g><g transform="translate(4.702 5.535)"><g transform="translate(0)"><rect class="b" width="7.824" height="1.383" transform="translate(0 5.532) rotate(-45)"/></g></g></g></g></svg>