<svg xmlns="http://www.w3.org/2000/svg" xmlns:xlink="http://www.w3.org/1999/xlink" width="87" height="87" viewBox="0 0 87 87"><defs><style>.a{fill:url(#a);}.b{fill:#fff;stroke:#fff;stroke-width:0.5px;}</style><linearGradient id="a" x1="0.5" x2="0.5" y2="1" gradientUnits="objectBoundingBox"><stop offset="0" stop-color="#54f9b1"/><stop offset="1" stop-color="#0ecc8b"/></linearGradient></defs><g transform="translate(-764 -2464)"><circle class="a" cx="43.5" cy="43.5" r="43.5" transform="translate(764 2464)"/><g transform="translate(739.103 2458.86)"><g transform="translate(49.451 27.059)"><g transform="translate(0 0)"><path class="b" d="M9.514,1.2,10.2,3.138a.311.311,0,0,0,.161.182l1.72.775a.343.343,0,0,1,0,.606l-1.72.775a.311.311,0,0,0-.161.182L9.514,7.593a.279.279,0,0,1-.538,0L8.287,5.657a.311.311,0,0,0-.161-.182L6.406,4.7a.343.343,0,0,1,0-.606l1.72-.775a.311.311,0,0,0,.161-.182L8.976,1.2A.279.279,0,0,1,9.514,1.2Z" transform="translate(25.964 4.481)"/><path class="b" d="M4.135.152l.511,1.436a.231.231,0,0,0,.12.135L6.041,2.3a.254.254,0,0,1,0,.45l-1.276.575a.23.23,0,0,0-.12.135L4.135,4.893a.207.207,0,0,1-.4,0L3.224,3.457a.231.231,0,0,0-.12-.135L1.829,2.747a.254.254,0,0,1,0-.45L3.1,1.723a.23.23,0,0,0,.12-.135L3.735.152a.207.207,0,0,1,.4,0Z" transform="translate(5.614 0)"/><path class="b" d="M7.589,1.4A1.011,1.011,0,1,1,6.578.389,1.011,1.011,0,0,1,7.589,1.4Z" transform="translate(23.01 1.749)"/><path class="b" d="M3.351,2.821A1.494,1.494,0,1,1,1.857,1.327,1.494,1.494,0,0,1,3.351,2.821Z" transform="translate(-0.363 5.963)"/></g><g transform="translate(1.334 8.058)"><path class="b" d="M17.688,35.63A17.081,17.081,0,1,1,34.769,18.549,17.1,17.1,0,0,1,17.688,35.63Zm0-32.5A15.423,15.423,0,1,0,33.11,18.549,15.44,15.44,0,0,0,17.688,3.126Z" transform="translate(-0.606 -1.467)"/><path class="b" d="M8.827,7.8A.829.829,0,0,1,8,6.975a2.308,2.308,0,1,0-4.616,0,.829.829,0,1,1-1.658,0,3.967,3.967,0,0,1,7.933,0A.83.83,0,0,1,8.827,7.8Z" transform="translate(4.412 5.454)"/><path class="b" d="M11.369,7.8a.829.829,0,0,1-.829-.829,2.308,2.308,0,1,0-4.616,0,.829.829,0,1,1-1.658,0,3.967,3.967,0,0,1,7.933,0,.83.83,0,0,1-.829.829Z" transform="translate(15.829 5.454)"/><path class="b" d="M24.458,4.482H2.385a.829.829,0,0,0-.829.829,11.866,11.866,0,1,0,23.731,0A.829.829,0,0,0,24.458,4.482ZM7.122,13.337a7.387,7.387,0,0,1,6.3-3,7.387,7.387,0,0,1,6.3,3,10.184,10.184,0,0,1-12.6,0ZM20.951,12.2a9.182,9.182,0,0,0-7.529-3.514,9.182,9.182,0,0,0-7.53,3.514A10.171,10.171,0,0,1,3.248,6.141H23.6A10.17,10.17,0,0,1,20.951,12.2Z" transform="translate(3.66 12.077)"/></g></g></g></g></svg>