<svg xmlns="http://www.w3.org/2000/svg" xmlns:xlink="http://www.w3.org/1999/xlink" width="87" height="87" viewBox="0 0 87 87"><defs><style>.a{fill:url(#a);}.b{fill:#fff;}</style><linearGradient id="a" x1="0.5" x2="0.5" y2="1" gradientUnits="objectBoundingBox"><stop offset="0" stop-color="#5d5d5d"/><stop offset="1" stop-color="#262626"/></linearGradient></defs><g transform="translate(-116 -2483)"><circle class="a" cx="43.5" cy="43.5" r="43.5" transform="translate(116 2483)"/><g transform="translate(133.976 2500.987)"><g transform="translate(0.017 0.001)"><path class="b" d="M40.7,5.655,27.947.072a.85.85,0,0,0-.68,0L14.51,5.655a.85.85,0,0,0-.51.779V19.786a9.367,9.367,0,0,0,3.878,7.576l8.816,6.359a1.556,1.556,0,0,0,1.825,0l8.816-6.358a9.367,9.367,0,0,0,3.878-7.576V6.434A.85.85,0,0,0,40.7,5.655ZM39.513,19.787a7.662,7.662,0,0,1-3.172,6.2l-8.734,6.3-8.734-6.3a7.662,7.662,0,0,1-3.172-6.2V6.991L27.607,1.779,39.513,6.991Z" transform="translate(-2.109 -0.001)"/><path class="b" d="M27.865,4.438l-9.355,4.1a.85.85,0,0,0-.51.779V20.44a5.953,5.953,0,0,0,2.466,4.817l7.241,5.223a.85.85,0,0,0,1,0l7.241-5.223A5.953,5.953,0,0,0,38.41,20.44V9.312a.85.85,0,0,0-.51-.779l-9.355-4.1A.85.85,0,0,0,27.865,4.438Zm8.844,5.43V20.44a4.252,4.252,0,0,1-1.76,3.437l-6.744,4.864-6.744-4.864A4.252,4.252,0,0,1,19.7,20.44V9.868l8.5-3.722Z" transform="translate(-2.707 -0.654)"/><path class="b" d="M7.048,32.16l-1.839-4.3a2.711,2.711,0,0,0-4.961,2.19l3.333,7.332a9.032,9.032,0,0,0,1.846,2.665l5.241,5.242a1.691,1.691,0,0,0-.461,1.157v6.8a1.7,1.7,0,0,0,1.7,1.7h9.355a1.7,1.7,0,0,0,1.7-1.7v-6.8a1.7,1.7,0,0,0-1.7-1.7V43.164a8.911,8.911,0,0,0-1.864-5.57,6.123,6.123,0,0,0-2.834-2.067A16.822,16.822,0,0,1,11.7,32.4,3.912,3.912,0,0,0,7.048,32.16ZM21.263,53.25H11.909v-6.8h9.355Zm-3.192-14.6a7.216,7.216,0,0,1,1.491,4.508v1.583H12.53l-5.9-5.9a7.356,7.356,0,0,1-1.5-2.166L1.8,29.348a1.011,1.011,0,1,1,1.849-.816l1.9,4.437a10.035,10.035,0,0,0,2.145,3.168l3.885,3.886a.85.85,0,1,0,1.2-1.2L8.895,34.934a8.388,8.388,0,0,1-1.049-1.276A2.211,2.211,0,0,1,10.6,33.7a18.13,18.13,0,0,0,5.426,3.436A4.467,4.467,0,0,1,18.072,38.655Z" transform="translate(-0.017 -3.926)"/><path class="b" d="M21.7,53h-.85a.85.85,0,0,0,0,1.7h.85a.85.85,0,0,0,0-1.7Z" transform="translate(-3.006 -7.928)"/><path class="b" d="M52.383,37.376l3.333-7.332a2.711,2.711,0,1,0-4.96-2.19l-1.835,4.282a3.922,3.922,0,0,0-4.653.255A16.822,16.822,0,0,1,39.4,35.516a6.123,6.123,0,0,0-2.834,2.067A8.911,8.911,0,0,0,34.7,43.157v1.583a1.7,1.7,0,0,0-1.7,1.7v6.8a1.7,1.7,0,0,0,1.7,1.7h9.355a1.7,1.7,0,0,0,1.7-1.7v-6.8a1.691,1.691,0,0,0-.461-1.157l5.241-5.242A9.032,9.032,0,0,0,52.383,37.376ZM44.056,53.243H34.7v-6.8h9.355Zm-.622-8.5H36.4V43.157a7.216,7.216,0,0,1,1.491-4.507,4.47,4.47,0,0,1,2.041-1.516A18.123,18.123,0,0,0,45.36,33.7a2.211,2.211,0,0,1,2.76-.054,8.338,8.338,0,0,1-1.054,1.284l-3.885,3.886a.85.85,0,0,0,1.2,1.2l3.885-3.886a10.035,10.035,0,0,0,2.145-3.168l1.9-4.438a1.011,1.011,0,1,1,1.849.817l-3.333,7.332a7.355,7.355,0,0,1-1.5,2.166Z" transform="translate(-4.951 -3.919)"/><path class="b" d="M38.7,53h-.85a.85.85,0,0,0,0,1.7h.85a.85.85,0,0,0,0-1.7Z" transform="translate(-5.549 -7.928)"/><path class="b" d="M24.361,19.824a.85.85,0,1,0-1.021,1.361l3.4,2.551a.851.851,0,0,0,.51.17.914.914,0,0,0,.144-.012.85.85,0,0,0,.564-.367l6.8-10.205a.851.851,0,0,0-1.415-.944l-6.305,9.458Z" transform="translate(-3.455 -1.795)"/></g></g></g></svg>